{"title":"The Night Before (2015) BRRIP 1080P NO CINAVIA","uid":13685719,"size":2073513523,"categoryP":"video","categoryS":"hd___movies","magnet":"?xt=urn:btih:c3dc3b174157a36b30976ee1255645e4064bb928&amp;dn=The+Night+Before+%282015%29+BRRIP+1080P+NO+CINAVIA&amp;tr=udp%3A%2F%2Ftracker.leechers-paradise.org%3A6969&amp;tr=udp%3A%2F%2Fzer0day.ch%3A1337&amp;tr=udp%3A%2F%2Fopen.demonii.com%3A1337&amp;tr=udp%3A%2F%2Ftracker.coppersurfer.tk%3A6969&amp;tr=udp%3A%2F%2Fexodus.desync.com%3A6969","seeders":0,"leechers":3,"uploader":"jmanwf","files":1,"time":1456543661,"description":"On Christmas eve, three lifelong friends spend the night in New York City looking for the Holy Grail of Christmas parties.\r\n\r\n\r\n\r\nVideo\r\nID : 1\r\nFormat : AVC\r\nFormat/Info : Advanced Video Codec\r\nFormat profile :   \r\nFormat settings, CABAC : Yes\r\nFormat settings, ReFrames : 4 frames\r\nCodec ID : avc1\r\nCodec ID/Info : Advanced Video Coding\r\nDuration : 1h 41mn\r\nBit rate : 2 500 Kbps\r\nWidth : 1 920 pixels\r\nHeight : 808 pixels\r\nDisplay aspect ratio : 2.40:1\r\nFrame rate mode : Constant\r\nFrame rate : 23.976 fps\r\nColor space : YUV\r\nChroma subsampling : 4:2:0\r\nBit depth : 8 bits\r\nScan type : Progressive\r\nBits/(Pixel*Frame) : 0.067\r\nStream size : 1.77 GiB (92%)\r\nWriting library : x264 core 148 r2597M e86f3a1\r\nEncoded date : UTC 2016-02-17 02:38:24\r\nTagged date : UTC 2016-02-17 02:38:24\r\n\r\nAudio\r\nID : 2\r\nFormat : AAC\r\nFormat/Info : Advanced Audio Codec\r\nFormat profile : LC\r\nCodec ID : 40\r\nDuration : 1h 41mn\r\nBit rate mode : Variable\r\nBit rate : 224 Kbps\r\nMaximum bit rate : 896 Kbps\r\nChannel(s) : 2 channels\r\nChannel(s)_Original : 6 channels\r\nChannel positions : Front: L C R, Side: L R, LFE\r\nSampling rate : 48.0 KHz\r\nCompression mode : Lossy\r\nStream size : 162 MiB (8%)\r\nLanguage : English\r\nEncoded date : UTC 2016-02-17 02:38:24\r\nTagged date : UTC 2016-02-17 \r\n\r\n\r\n \nhttp://s15.postimg.org/6t3iith8r/image.jpg\r\n\r\n\r\n\r\n \nhttp://s15.postimg.org/wsh2i9ojv/image.jpg","torrent":{"xt":"urn:btih:c3dc3b174157a36b30976ee1255645e4064bb928","amp;dn":"The+Night+Before+%282015%29+BRRIP+1080P+NO+CINAVIA","amp;tr":["udp%3A%2F%2Ftracker.leechers-paradise.org%3A6969","udp%3A%2F%2Fzer0day.ch%3A1337","udp%3A%2F%2Fopen.demonii.com%3A1337","udp%3A%2F%2Ftracker.coppersurfer.tk%3A6969","udp%3A%2F%2Fexodus.desync.com%3A6969"],"infoHash":"c3dc3b174157a36b30976ee1255645e4064bb928","infoHashBuffer":{"type":"Buffer","data":[195,220,59,23,65,87,163,107,48,151,110,225,37,86,69,228,6,75,185,40]},"announce":[],"urlList":[]}}